<?xml version="1.0"?>
<!DOCTYPE svg PUBLIC "-//W3C//DTD SVG 1.1//EN" "http://www.w3.org/Graphics/SVG/1.1/DTD/svg11.dtd">
<svg width="8.160047129055432mm" height="11.210000924099127mm" viewBox="0 0 8.160047129055432 11.210000924099127" xmlns="http://www.w3.org/2000/svg" version="1.1">
<g id="Shape2DView012" transform="translate(8.080047,5.605000) scale(1,-1)">
<path id="Shape2DView012_nwe0000"  d="M 0.0 -4.44 L 0.0 -4.328679930087297 L 0.0 -4.000301773486742 L 0.0 -3.471331782158053 L 0.0 -2.768294720252778 L 0.0 -1.926443801681959 L 0.0 -0.9879929467660369 L 0.0 -8.156147682321373e-16 L 0.0 0.9879929467660352 L 0.0 1.9264438016819574 L 0.0 2.7682947202527766 L 0.0 3.4713317821580523 L 0.0 4.000301773486741 L 0.0 4.328679930087297 L 0.0 4.44 " stroke="#000000" stroke-width="0.35 px" style="stroke-width:0.35;stroke-miterlimit:4;stroke-dasharray:none;stroke-linecap:square;fill:none;fill-opacity:1;fill-rule: evenodd"/>
<path id="Shape2DView012_nwe0001"  d="M 0.0 4.44 L -0.6264250420707439 5.525 " stroke="#000000" stroke-width="0.35 px" style="stroke-width:0.35;stroke-miterlimit:4;stroke-dasharray:none;stroke-linecap:square;fill:none;fill-opacity:1;fill-rule: evenodd"/>
<path id="Shape2DView012_nwe0002"  d="M -0.6264250420707439 -5.525 L -0.6264250420707439 -5.5249002446341535 L -0.6264250420707439 -5.524600982138834 L -0.6264250420707439 -5.52410222332057 L -0.6264250420707439 -5.523403986189813 L -0.6264250420707439 -5.522506295960283 L -0.6264250420707439 -5.521409185048058 L -0.6264250420707439 -5.520112693070405 L -0.6264250420707439 -5.518616866844349 L -0.6264250420707439 -5.5169217603849825 L -0.6264250420707439 -5.515027434903515 L -0.6264250420707439 -5.512933958805061 L -0.6264250420707439 -5.510641407686173 L -0.6264250420707439 -5.508149864332109 L -0.6264250420707439 -5.505459418713844 " stroke="#000000" stroke-width="0.35 px" style="stroke-width:0.35;stroke-miterlimit:4;stroke-dasharray:none;stroke-linecap:square;fill:none;fill-opacity:1;fill-rule: evenodd"/>
<path id="Shape2DView012_nwe0003"  d="M -0.6264250420707431 -5.505459418713844 L -0.5449973944233157 -5.328508145137667 L -0.47666938141385407 -5.155764274362023 L -0.421153053414963 -4.986499824830982 L -0.37821445212378135 -4.82000147805295 L -0.3476726246090305 -4.655567572515978 L -0.3293988607346243 -4.492505146728217 L -0.32331615074619036 -4.330127018922195 L -0.3293988607346243 -4.167748891116174 L -0.3476726246090296 -4.0046864653284135 L -0.3782144521237809 -3.840252559791442 L -0.4211530534149621 -3.673754213013409 L -0.4766693814138532 -3.5044897634823675 L -0.5449973944233153 -3.331745892706725 L -0.6264250420707427 -3.1547946191305476 " stroke="#000000" stroke-width="0.35 px" style="stroke-width:0.35;stroke-miterlimit:4;stroke-dasharray:none;stroke-linecap:square;fill:none;fill-opacity:1;fill-rule: evenodd"/>
<path id="Shape2DView012_nwe0004"  d="M -0.6264250420707439 -3.15479461913055 L -0.6264250420707439 -3.100055684546988 L -0.6264250420707439 -3.044868975270668 L -0.6264250420707439 -2.9892424625170455 L -0.6264250420707439 -2.9331841810271686 L -0.6264250420707439 -2.87670222790713 L -0.6264250420707439 -2.819804761458514 L -0.6264250420707439 -2.7625000000000064 L -0.6264250420707439 -2.704796220680332 L -0.6264250420707439 -2.646701758282696 L -0.6264250420707439 -2.588225004020902 L -0.6264250420707439 -2.5293744043273163 L -0.6264250420707439 -2.4701584596328603 L -0.6264250420707439 -2.410585723139198 L -0.6264250420707439 -2.350664799583307 " stroke="#000000" stroke-width="0.35 px" style="stroke-width:0.35;stroke-miterlimit:4;stroke-dasharray:none;stroke-linecap:square;fill:none;fill-opacity:1;fill-rule: evenodd"/>
<path id="Shape2DView012_nwe0005"  d="M -0.626425042070744 -2.3506647995833028 L -0.5449973944233162 -1.9967622524309474 L -0.47666938141385407 -1.6512745108796614 L -0.421153053414963 -1.3127456118175789 L -0.37821445212378135 -0.9797489182615117 L -0.3476726246090305 -0.6508811071875684 L -0.3293988607346243 -0.3247562556120455 L -0.32331615074619036 -2.7238888578947113e-15 L -0.3293988607346243 0.32475625561204 L -0.3476726246090296 0.650881107187563 L -0.37821445212378135 0.9797489182615062 L -0.4211530534149621 1.3127456118175738 L -0.47666938141385407 1.6512745108796563 L -0.5449973944233157 1.996762252430942 L -0.6264250420707431 2.3506647995832965 " stroke="#000000" stroke-width="0.35 px" style="stroke-width:0.35;stroke-miterlimit:4;stroke-dasharray:none;stroke-linecap:square;fill:none;fill-opacity:1;fill-rule: evenodd"/>
<path id="Shape2DView012_nwe0006"  d="M -0.6264250420707439 2.3506647995832965 L -0.6264250420707439 2.4105857231391874 L -0.6264250420707439 2.4701584596328496 L -0.6264250420707439 2.529374404327306 L -0.6264250420707439 2.5882250040208916 L -0.6264250420707439 2.6467017582826857 L -0.6264250420707439 2.704796220680322 L -0.6264250420707439 2.7624999999999966 L -0.6264250420707439 2.8198047614585042 L -0.6264250420707439 2.8767022279071197 L -0.6264250420707439 2.933184181027159 L -0.6264250420707439 2.9892424625170357 L -0.6264250420707439 3.044868975270658 L -0.6264250420707439 3.1000556845469784 L -0.6264250420707439 3.15479461913054 " stroke="#000000" stroke-width="0.35 px" style="stroke-width:0.35;stroke-miterlimit:4;stroke-dasharray:none;stroke-linecap:square;fill:none;fill-opacity:1;fill-rule: evenodd"/>
<path id="Shape2DView012_nwe0007"  d="M -0.626425042070744 3.1547946191305405 L -0.5449973944233166 3.331745892706718 L -0.47666938141385407 3.5044897634823613 L -0.42115305341496256 3.673754213013403 L -0.3782144521237809 3.8402525597914368 L -0.34767262460903003 4.004686465328408 L -0.3293988607346239 4.16774889111617 L -0.3233161507461899 4.330127018922191 L -0.3293988607346239 4.492505146728213 L -0.34767262460902915 4.655567572515975 L -0.37821445212378046 4.820001478052946 L -0.4211530534149617 4.98649982483098 L -0.47666938141385273 5.155764274362022 L -0.5449973944233153 5.328508145137664 L -0.6264250420707422 5.505459418713842 " stroke="#000000" stroke-width="0.35 px" style="stroke-width:0.35;stroke-miterlimit:4;stroke-dasharray:none;stroke-linecap:square;fill:none;fill-opacity:1;fill-rule: evenodd"/>
<path id="Shape2DView012_nwe0008"  d="M -0.6264250420707439 5.505459418713843 L -0.6264250420707439 5.5081498643321085 L -0.6264250420707439 5.510641407686173 L -0.6264250420707439 5.512933958805061 L -0.6264250420707439 5.515027434903515 L -0.6264250420707439 5.5169217603849825 L -0.6264250420707439 5.518616866844349 L -0.6264250420707439 5.520112693070405 L -0.6264250420707439 5.521409185048057 L -0.6264250420707439 5.522506295960283 L -0.6264250420707439 5.523403986189813 L -0.6264250420707439 5.52410222332057 L -0.6264250420707439 5.524600982138834 L -0.6264250420707439 5.5249002446341535 L -0.6264250420707439 5.525 " stroke="#000000" stroke-width="0.35 px" style="stroke-width:0.35;stroke-miterlimit:4;stroke-dasharray:none;stroke-linecap:square;fill:none;fill-opacity:1;fill-rule: evenodd"/>
<path id="Shape2DView012_nwe0009"  d="M -4.596891108675447 -5.525 L -4.596891108675447 -5.5249002446341535 L -4.596891108675447 -5.524600982138834 L -4.596891108675447 -5.52410222332057 L -4.596891108675447 -5.523403986189813 L -4.596891108675447 -5.522506295960283 L -4.596891108675447 -5.521409185048058 L -4.596891108675447 -5.520112693070405 L -4.596891108675447 -5.518616866844349 L -4.596891108675447 -5.5169217603849825 L -4.596891108675447 -5.515027434903515 L -4.596891108675447 -5.512933958805061 L -4.596891108675447 -5.510641407686173 L -4.596891108675447 -5.508149864332109 L -4.596891108675447 -5.505459418713844 " stroke="#000000" stroke-width="0.35 px" style="stroke-width:0.35;stroke-miterlimit:4;stroke-dasharray:none;stroke-linecap:square;fill:none;fill-opacity:1;fill-rule: evenodd"/>
<path id="Shape2DView012_nwe0010"  d="M -0.6264250420707439 -5.505459418713844 L -4.596891108675447 -5.505459418713844 " stroke="#000000" stroke-width="0.35 px" style="stroke-width:0.35;stroke-miterlimit:4;stroke-dasharray:none;stroke-linecap:square;fill:none;fill-opacity:1;fill-rule: evenodd"/>
<path id="Shape2DView012_nwe0011"  d="M -0.6264250420707439 -3.1547946191305454 L -4.596891108675447 -3.1547946191305454 " stroke="#000000" stroke-width="0.35 px" style="stroke-width:0.35;stroke-miterlimit:4;stroke-dasharray:none;stroke-linecap:square;fill:none;fill-opacity:1;fill-rule: evenodd"/>
<path id="Shape2DView012_nwe0012"  d="M -4.5968911086754485 -3.1547946191305476 L -4.677550570967711 -3.331745892706725 L -4.745233980080858 -3.5044897634823675 L -4.800226569136363 -3.6737542130134084 L -4.842760089283288 -3.8402525597914416 L -4.873013786349786 -4.004686465328413 L -4.891115156225377 -4.167748891116174 L -4.897140482157316 -4.330127018922195 L -4.891115156225377 -4.492505146728217 L -4.8730137863497855 -4.655567572515977 L -4.842760089283287 -4.820001478052949 L -4.800226569136362 -4.986499824830982 L -4.745233980080857 -5.155764274362023 L -4.6775505709677105 -5.328508145137666 L -4.596891108675448 -5.505459418713844 " stroke="#000000" stroke-width="0.35 px" style="stroke-width:0.35;stroke-miterlimit:4;stroke-dasharray:none;stroke-linecap:square;fill:none;fill-opacity:1;fill-rule: evenodd"/>
<path id="Shape2DView012_nwe0013"  d="M -4.596891108675447 -3.15479461913055 L -4.596891108675447 -3.100055684546988 L -4.596891108675447 -3.044868975270668 L -4.596891108675447 -2.9892424625170455 L -4.596891108675447 -2.9331841810271686 L -4.596891108675447 -2.87670222790713 L -4.596891108675447 -2.819804761458514 L -4.596891108675447 -2.7625000000000064 L -4.596891108675447 -2.704796220680332 L -4.596891108675447 -2.646701758282696 L -4.596891108675447 -2.588225004020902 L -4.596891108675447 -2.5293744043273163 L -4.596891108675447 -2.4701584596328603 L -4.596891108675447 -2.410585723139198 L -4.596891108675447 -2.350664799583307 " stroke="#000000" stroke-width="0.35 px" style="stroke-width:0.35;stroke-miterlimit:4;stroke-dasharray:none;stroke-linecap:square;fill:none;fill-opacity:1;fill-rule: evenodd"/>
<path id="Shape2DView012_nwe0014"  d="M -0.6264250420707439 -2.350664799583302 L -4.596891108675447 -2.350664799583302 " stroke="#000000" stroke-width="0.35 px" style="stroke-width:0.35;stroke-miterlimit:4;stroke-dasharray:none;stroke-linecap:square;fill:none;fill-opacity:1;fill-rule: evenodd"/>
<path id="Shape2DView012_nwe0015"  d="M -0.6264250420707439 2.3506647995832974 L -4.596891108675447 2.3506647995832974 " stroke="#000000" stroke-width="0.35 px" style="stroke-width:0.35;stroke-miterlimit:4;stroke-dasharray:none;stroke-linecap:square;fill:none;fill-opacity:1;fill-rule: evenodd"/>
<path id="Shape2DView012_nwe0016"  d="M -4.596891108675448 2.3506647995832965 L -4.6775505709677105 1.9967622524309412 L -4.745233980080858 1.6512745108796554 L -4.800226569136363 1.3127456118175729 L -4.842760089283287 0.9797489182615053 L -4.873013786349786 0.6508811071875621 L -4.891115156225377 0.3247562556120392 L -4.897140482157316 -3.556556126363579e-15 L -4.891115156225377 -0.32475625561204635 L -4.8730137863497855 -0.6508811071875693 L -4.842760089283287 -0.9797489182615126 L -4.800226569136362 -1.3127456118175798 L -4.745233980080857 -1.6512745108796625 L -4.6775505709677105 -1.9967622524309485 L -4.596891108675447 -2.3506647995833028 " stroke="#000000" stroke-width="0.35 px" style="stroke-width:0.35;stroke-miterlimit:4;stroke-dasharray:none;stroke-linecap:square;fill:none;fill-opacity:1;fill-rule: evenodd"/>
<path id="Shape2DView012_nwe0017"  d="M -4.596891108675447 2.3506647995832965 L -4.596891108675447 2.4105857231391874 L -4.596891108675447 2.4701584596328496 L -4.596891108675447 2.529374404327306 L -4.596891108675447 2.5882250040208916 L -4.596891108675447 2.6467017582826857 L -4.596891108675447 2.704796220680322 L -4.596891108675447 2.7624999999999966 L -4.596891108675447 2.8198047614585042 L -4.596891108675447 2.8767022279071197 L -4.596891108675447 2.933184181027159 L -4.596891108675447 2.9892424625170357 L -4.596891108675447 3.044868975270658 L -4.596891108675447 3.1000556845469784 L -4.596891108675447 3.15479461913054 " stroke="#000000" stroke-width="0.35 px" style="stroke-width:0.35;stroke-miterlimit:4;stroke-dasharray:none;stroke-linecap:square;fill:none;fill-opacity:1;fill-rule: evenodd"/>
<path id="Shape2DView012_nwe0018"  d="M -0.6264250420707439 3.154794619130541 L -4.596891108675447 3.154794619130541 " stroke="#000000" stroke-width="0.35 px" style="stroke-width:0.35;stroke-miterlimit:4;stroke-dasharray:none;stroke-linecap:square;fill:none;fill-opacity:1;fill-rule: evenodd"/>
<path id="Shape2DView012_nwe0019"  d="M -0.6264250420707439 5.505459418713844 L -4.596891108675447 5.505459418713844 " stroke="#000000" stroke-width="0.35 px" style="stroke-width:0.35;stroke-miterlimit:4;stroke-dasharray:none;stroke-linecap:square;fill:none;fill-opacity:1;fill-rule: evenodd"/>
<path id="Shape2DView012_nwe0020"  d="M -4.5968911086754485 5.505459418713842 L -4.677550570967711 5.328508145137664 L -4.745233980080858 5.155764274362021 L -4.800226569136363 4.98649982483098 L -4.8427600892832885 4.820001478052946 L -4.873013786349787 4.655567572515975 L -4.891115156225377 4.492505146728213 L -4.897140482157317 4.330127018922191 L -4.891115156225377 4.16774889111617 L -4.873013786349786 4.004686465328408 L -4.842760089283288 3.8402525597914363 L -4.800226569136363 3.6737542130134027 L -4.745233980080856 3.5044897634823613 L -4.6775505709677105 3.331745892706718 L -4.596891108675447 3.1547946191305405 " stroke="#000000" stroke-width="0.35 px" style="stroke-width:0.35;stroke-miterlimit:4;stroke-dasharray:none;stroke-linecap:square;fill:none;fill-opacity:1;fill-rule: evenodd"/>
<path id="Shape2DView012_nwe0021"  d="M -4.596891108675447 5.525 L -4.9 4.995 " stroke="#000000" stroke-width="0.35 px" style="stroke-width:0.35;stroke-miterlimit:4;stroke-dasharray:none;stroke-linecap:square;fill:none;fill-opacity:1;fill-rule: evenodd"/>
<path id="Shape2DView012_nwe0022"  d="M -4.9 -4.995 L -4.9 -4.869764921348209 L -4.9 -4.500339495172584 L -4.9 -3.9052482549278094 L -4.9 -3.114331560284375 L -4.9 -2.167249276892204 L -4.9 -1.1114920651117914 L -4.9 -9.175666142611543e-16 L -4.9 1.1114920651117897 L -4.9 2.167249276892202 L -4.9 3.114331560284373 L -4.9 3.9052482549278085 L -4.9 4.500339495172583 L -4.9 4.869764921348208 L -4.9 4.995 " stroke="#000000" stroke-width="0.35 px" style="stroke-width:0.35;stroke-miterlimit:4;stroke-dasharray:none;stroke-linecap:square;fill:none;fill-opacity:1;fill-rule: evenodd"/>
<path id="Shape2DView012_nwe0023"  d="M -4.596891108675447 5.505459418713843 L -4.596891108675447 5.5081498643321085 L -4.596891108675447 5.510641407686173 L -4.596891108675447 5.512933958805061 L -4.596891108675447 5.515027434903515 L -4.596891108675447 5.5169217603849825 L -4.596891108675447 5.518616866844349 L -4.596891108675447 5.520112693070405 L -4.596891108675447 5.521409185048057 L -4.596891108675447 5.522506295960283 L -4.596891108675447 5.523403986189813 L -4.596891108675447 5.52410222332057 L -4.596891108675447 5.524600982138834 L -4.596891108675447 5.5249002446341535 L -4.596891108675447 5.525 " stroke="#000000" stroke-width="0.35 px" style="stroke-width:0.35;stroke-miterlimit:4;stroke-dasharray:none;stroke-linecap:square;fill:none;fill-opacity:1;fill-rule: evenodd"/>
<path id="Shape2DView012_nwe0024"  d="M -8.0 -4.161666666666667 L -8.0 -4.057324994530023 L -8.0 -3.7495321052539015 L -8.0 -3.253722019537785 L -8.0 -2.594756725402097 L -8.0 -1.8056794942942387 L -8.0 -0.9260579534815293 L -8.0 -7.644857643677353e-16 L -8.0 0.9260579534815278 L -8.0 1.8056794942942371 L -8.0 2.5947567254020956 L -8.0 3.253722019537784 L -8.0 3.749532105253901 L -8.0 4.057324994530022 L -8.0 4.161666666666667 " stroke="#000000" stroke-width="0.35 px" style="stroke-width:0.35;stroke-miterlimit:4;stroke-dasharray:none;stroke-linecap:square;fill:none;fill-opacity:1;fill-rule: evenodd"/>
<path id="Shape2DView012_nwe0025"  d="M -4.9 4.995 L -7.166666666666667 4.995 " stroke="#000000" stroke-width="0.35 px" style="stroke-width:0.35;stroke-miterlimit:4;stroke-dasharray:none;stroke-linecap:square;fill:none;fill-opacity:1;fill-rule: evenodd"/>
<path id="Shape2DView012_nwe0026"  d="M -7.166666666666667 4.995 A 0.833333 0.833333 0 0 1 -8 4.16167" stroke="#000000" stroke-width="0.35 px" style="stroke-width:0.35;stroke-miterlimit:4;stroke-dasharray:none;stroke-linecap:square;fill:none;fill-opacity:1;fill-rule: evenodd"/>
<path id="Shape2DView012_nwe0027"  d="M -7.166666666666667 -4.995 L -7.166666666666667 -4.869764921348209 L -7.166666666666667 -4.500339495172584 L -7.166666666666667 -3.9052482549278094 L -7.166666666666667 -3.114331560284375 L -7.166666666666667 -2.167249276892204 L -7.166666666666667 -1.1114920651117914 L -7.166666666666667 -9.175666142611543e-16 L -7.166666666666667 1.1114920651117897 L -7.166666666666667 2.167249276892202 L -7.166666666666667 3.114331560284373 L -7.166666666666667 3.9052482549278085 L -7.166666666666667 4.500339495172583 L -7.166666666666667 4.869764921348208 L -7.166666666666667 4.995 " stroke="#000000" stroke-width="0.35 px" style="stroke-width:0.35;stroke-miterlimit:4;stroke-dasharray:none;stroke-linecap:square;fill:none;fill-opacity:1;fill-rule: evenodd"/>
<path id="Shape2DView012_nwe0028"  d="M 2.220446049250313e-16 -4.44 L -0.6264250420707436 -5.525 " stroke="#000000" stroke-width="0.35 px" style="stroke-width:0.35;stroke-miterlimit:4;stroke-dasharray:none;stroke-linecap:square;fill:none;fill-opacity:1;fill-rule: evenodd"/>
<path id="Shape2DView012_nwe0029"  d="M -0.6264250420707439 -5.525 L -4.596891108675447 -5.525 " stroke="#000000" stroke-width="0.35 px" style="stroke-width:0.35;stroke-miterlimit:4;stroke-dasharray:none;stroke-linecap:square;fill:none;fill-opacity:1;fill-rule: evenodd"/>
<path id="Shape2DView012_nwe0030"  d="M -4.900000000000001 -4.995000000000001 L -4.596891108675448 -5.525 " stroke="#000000" stroke-width="0.35 px" style="stroke-width:0.35;stroke-miterlimit:4;stroke-dasharray:none;stroke-linecap:square;fill:none;fill-opacity:1;fill-rule: evenodd"/>
<path id="Shape2DView012_nwe0031"  d="M -4.9 -4.995 L -7.166666666666667 -4.995 " stroke="#000000" stroke-width="0.35 px" style="stroke-width:0.35;stroke-miterlimit:4;stroke-dasharray:none;stroke-linecap:square;fill:none;fill-opacity:1;fill-rule: evenodd"/>
<path id="Shape2DView012_nwe0032"  d="M -7.166666666666667 -4.995 Q -7.347030243043201 -4.953939633677454 -7.527393819419734 -4.912879267354906 Q -7.581231650481589 -4.881889872958522 -7.635069481543442 -4.850900478562136 Q -7.988253588613384 -4.596674549635437 -8.0 -4.161666666666667 " stroke="#000000" stroke-width="0.35 px" style="stroke-width:0.35;stroke-miterlimit:4;stroke-dasharray:none;stroke-linecap:square;fill:none;fill-opacity:1;fill-rule: evenodd"/>
<path id="Shape2DView012_nwe0033"  d="M -0.6264250420707439 5.525 L -4.596891108675447 5.525 " stroke="#000000" stroke-width="0.35 px" style="stroke-width:0.35;stroke-miterlimit:4;stroke-dasharray:none;stroke-linecap:square;fill:none;fill-opacity:1;fill-rule: evenodd"/>
<title>b'Shape2DView012'</title>
</g>
</svg>