<?xml version="1.0"?>
<!DOCTYPE svg PUBLIC "-//W3C//DTD SVG 1.1//EN" "http://www.w3.org/Graphics/SVG/1.1/DTD/svg11.dtd">
<svg width="11.271mm" height="10.221000000000004mm" viewBox="0 0 11.271 10.221000000000004" xmlns="http://www.w3.org/2000/svg" version="1.1">
<g id="Shape2DView013" transform="translate(5.635500,5.110500) scale(1,-1)">
<circle cx="0.0" cy="0.0" r="2.5" stroke="#000000" stroke-width="0.35 px" style="stroke-width:0.35;stroke-miterlimit:4;stroke-dasharray:none;stroke-linecap:square;fill:none"/>
<path id="Shape2DView013_nwe0001"  d="M 3.154794619130545 4.535735432220994 L 3.3317458927067225 4.229246835923034 L 3.5044897634823657 3.9300456750435075 L 3.6737542130134067 3.6368710485405664 L 3.8402525597914403 3.34848745254479 L 4.004686465328412 3.0636795736677738 L 4.167748891116173 2.7812471673979418 L 4.3301270189221945 2.5 L 4.492505146728216 2.2187528326020582 L 4.655567572515977 1.936320426332226 L 4.820001478052949 1.65151254745521 L 4.986499824830982 1.3631289514594338 L 5.155764274362024 1.0699543249564922 L 5.328508145137667 0.7707531640769663 L 5.505459418713844 0.4642645677790065 " stroke="#000000" stroke-width="0.35 px" style="stroke-width:0.35;stroke-miterlimit:4;stroke-dasharray:none;stroke-linecap:square;fill:none;fill-opacity:1;fill-rule: evenodd"/>
<path id="Shape2DView013_nwe0002"  d="M 3.1547946191305454 4.535735432220993 A 5.525 5.525 0 0 1 2.35066 5" stroke="#000000" stroke-width="0.35 px" style="stroke-width:0.35;stroke-miterlimit:4;stroke-dasharray:none;stroke-linecap:square;fill:none;fill-opacity:1;fill-rule: evenodd"/>
<path id="Shape2DView013_nwe0003"  d="M -2.3506647995833014 5.000000000000001 L -1.9967622524309458 5.000000000000001 L -1.6512745108796596 5.000000000000001 L -1.3127456118175767 5.000000000000001 L -0.9797489182615089 5.000000000000001 L -0.6508811071875653 5.000000000000001 L -0.32475625561204213 5.000000000000001 L 9.079629526315703e-16 5.000000000000001 L 0.32475625561204396 5.000000000000001 L 0.6508811071875672 5.000000000000001 L 0.9797489182615107 5.000000000000001 L 1.3127456118175782 5.000000000000001 L 1.6512745108796614 5.000000000000001 L 1.9967622524309474 5.000000000000001 L 2.3506647995833028 5.000000000000001 " stroke="#000000" stroke-width="0.35 px" style="stroke-width:0.35;stroke-miterlimit:4;stroke-dasharray:none;stroke-linecap:square;fill:none;fill-opacity:1;fill-rule: evenodd"/>
<path id="Shape2DView013_nwe0004"  d="M -2.3506647995833014 5.0 A 5.525 5.525 0 0 1 -3.15479 4.53574" stroke="#000000" stroke-width="0.35 px" style="stroke-width:0.35;stroke-miterlimit:4;stroke-dasharray:none;stroke-linecap:square;fill:none;fill-opacity:1;fill-rule: evenodd"/>
<path id="Shape2DView013_nwe0005"  d="M -5.505459418713843 0.46426456777900915 L -5.328508145137666 0.7707531640769689 L -5.1557642743620224 1.0699543249564951 L -4.986499824830981 1.3631289514594367 L -4.820001478052947 1.6515125474552126 L -4.6555675725159755 1.936320426332229 L -4.492505146728214 2.2187528326020614 L -4.330127018922193 2.5000000000000027 L -4.167748891116171 2.7812471673979444 L -4.004686465328409 3.063679573667777 L -3.8402525597914376 3.348487452544793 L -3.673754213013404 3.636871048540569 L -3.504489763482362 3.9300456750435107 L -3.3317458927067194 4.229246835923037 L -3.154794619130542 4.535735432220996 " stroke="#000000" stroke-width="0.35 px" style="stroke-width:0.35;stroke-miterlimit:4;stroke-dasharray:none;stroke-linecap:square;fill:none;fill-opacity:1;fill-rule: evenodd"/>
<path id="Shape2DView013_nwe0006"  d="M -5.505459418713843 0.4642645677790091 A 5.525 5.525 0 0 1 -5.50546 -0.464265" stroke="#000000" stroke-width="0.35 px" style="stroke-width:0.35;stroke-miterlimit:4;stroke-dasharray:none;stroke-linecap:square;fill:none;fill-opacity:1;fill-rule: evenodd"/>
<path id="Shape2DView013_nwe0007"  d="M -3.1547946191305476 -4.535735432220989 L -3.331745892706725 -4.229246835923029 L -3.5044897634823675 -3.9300456750435044 L -3.6737542130134084 -3.636871048540563 L -3.8402525597914416 -3.348487452544787 L -4.004686465328413 -3.063679573667771 L -4.167748891116174 -2.781247167397939 L -4.330127018922195 -2.499999999999998 L -4.492505146728217 -2.218752832602056 L -4.655567572515977 -1.936320426332224 L -4.820001478052949 -1.6515125474552081 L -4.986499824830982 -1.3631289514594322 L -5.155764274362023 -1.0699543249564911 L -5.328508145137666 -0.7707531640769656 L -5.505459418713844 -0.46426456777900516 " stroke="#000000" stroke-width="0.35 px" style="stroke-width:0.35;stroke-miterlimit:4;stroke-dasharray:none;stroke-linecap:square;fill:none;fill-opacity:1;fill-rule: evenodd"/>
<path id="Shape2DView013_nwe0008"  d="M -3.15479461913055 -4.53573543222099 A 5.525 5.525 0 0 1 -2.35066 -5" stroke="#000000" stroke-width="0.35 px" style="stroke-width:0.35;stroke-miterlimit:4;stroke-dasharray:none;stroke-linecap:square;fill:none;fill-opacity:1;fill-rule: evenodd"/>
<path id="Shape2DView013_nwe0009"  d="M 2.3506647995832965 -5.000000000000002 L 1.9967622524309412 -5.000000000000002 L 1.6512745108796554 -5.000000000000002 L 1.3127456118175729 -5.000000000000002 L 0.9797489182615053 -5.000000000000002 L 0.6508811071875621 -5.000000000000001 L 0.3247562556120392 -5.000000000000001 L -3.556556126363579e-15 -5.000000000000001 L -0.32475625561204635 -5.000000000000001 L -0.6508811071875693 -5.000000000000001 L -0.9797489182615126 -5.0 L -1.3127456118175798 -5.0 L -1.6512745108796625 -5.0 L -1.9967622524309485 -5.0 L -2.3506647995833028 -5.0 " stroke="#000000" stroke-width="0.35 px" style="stroke-width:0.35;stroke-miterlimit:4;stroke-dasharray:none;stroke-linecap:square;fill:none;fill-opacity:1;fill-rule: evenodd"/>
<path id="Shape2DView013_nwe0010"  d="M 2.3506647995832965 -5.000000000000002 A 5.525 5.525 0 0 1 3.15479 -4.53574" stroke="#000000" stroke-width="0.35 px" style="stroke-width:0.35;stroke-miterlimit:4;stroke-dasharray:none;stroke-linecap:square;fill:none;fill-opacity:1;fill-rule: evenodd"/>
<path id="Shape2DView013_nwe0011"  d="M 5.505459418713842 -0.46426456777901093 L 5.328508145137664 -0.7707531640769707 L 5.155764274362021 -1.0699543249564967 L 4.98649982483098 -1.3631289514594382 L 4.820001478052946 -1.6515125474552144 L 4.655567572515975 -1.9363204263322302 L 4.492505146728213 -2.2187528326020627 L 4.330127018922191 -2.5000000000000044 L 4.16774889111617 -2.781247167397946 L 4.004686465328408 -3.0636795736677787 L 3.8402525597914363 -3.3484874525447945 L 3.6737542130134027 -3.636871048540571 L 3.5044897634823613 -3.9300456750435124 L 3.331745892706718 -4.229246835923038 L 3.1547946191305405 -4.5357354322209975 " stroke="#000000" stroke-width="0.35 px" style="stroke-width:0.35;stroke-miterlimit:4;stroke-dasharray:none;stroke-linecap:square;fill:none;fill-opacity:1;fill-rule: evenodd"/>
<circle cx="0.0" cy="0.0" r="3.3333333333333335" stroke="#000000" stroke-width="0.35 px" style="stroke-width:0.35;stroke-miterlimit:4;stroke-dasharray:none;stroke-linecap:square;fill:none"/>
<path id="Shape2DView013_nwe0013"  d="M 5.505459418713843 -0.4642645677790122 A 5.525 5.525 0 0 1 5.525 -1.35323e-15" stroke="#000000" stroke-width="0.35 px" style="stroke-width:0.35;stroke-miterlimit:4;stroke-dasharray:none;stroke-linecap:square;fill:none;fill-opacity:1;fill-rule: evenodd"/>
<path id="Shape2DView013_nwe0014"  d="M 5.525 0.0 A 5.525 5.525 0 0 1 5.50546 0.464265" stroke="#000000" stroke-width="0.35 px" style="stroke-width:0.35;stroke-miterlimit:4;stroke-dasharray:none;stroke-linecap:square;fill:none;fill-opacity:1;fill-rule: evenodd"/>
<circle cx="0.0" cy="0.0" r="4.995" stroke="#000000" stroke-width="0.35 px" style="stroke-width:0.35;stroke-miterlimit:4;stroke-dasharray:none;stroke-linecap:square;fill:none"/>
<circle cx="0.0" cy="0.0" r="4.161666666666667" stroke="#000000" stroke-width="0.35 px" style="stroke-width:0.35;stroke-miterlimit:4;stroke-dasharray:none;stroke-linecap:square;fill:none"/>
<circle cx="0.0" cy="0.0" r="4.995" stroke="#000000" stroke-width="0.35 px" style="stroke-width:0.35;stroke-miterlimit:4;stroke-dasharray:none;stroke-linecap:square;fill:none"/>
<path id="Shape2DView013_nwe0018"  d="M 5.525 0.0 L 4.995 0.0 " stroke="#000000" stroke-width="0.35 px" style="stroke-width:0.35;stroke-miterlimit:4;stroke-dasharray:none;stroke-linecap:square;fill:none;fill-opacity:1;fill-rule: evenodd"/>
<path id="Shape2DView013_nwe0019"  d="M 4.995 0.0 L 4.989760174911035 0.0 L 4.974106593484853 0.0 L 4.948236108590307 0.0 L 4.912474056585349 0.0 L 4.86727016602357 0.0 L 4.8131929020566915 0.0 L 4.750922317655457 0.0 L 4.6812415015489455 0.0 L 4.605026730429447 0.0 L 4.523236449264632 0.0 L 4.436899218295973 0.0 L 4.347100778296929 0.0 L 4.254970396752757 0.0 L 4.161666666666667 0.0 " stroke="#000000" stroke-width="0.35 px" style="stroke-width:0.35;stroke-miterlimit:4;stroke-dasharray:none;stroke-linecap:square;fill:none;fill-opacity:1;fill-rule: evenodd"/>
<title>b'Shape2DView013'</title>
</g>
</svg>